<svg width="54" height="62" viewBox="0 0 54 62" fill="none" xmlns="http://www.w3.org/2000/svg">
<path fill-rule="evenodd" clip-rule="evenodd" d="M18.25 6.58333C18.25 5.03624 18.8646 3.55251 19.9585 2.45854C21.0525 1.36458 22.5362 0.75 24.0833 0.75H29.9167C31.4638 0.75 32.9475 1.36458 34.0415 2.45854C35.1354 3.55251 35.75 5.03624 35.75 6.58333V18.25H47.4167C48.9638 18.25 50.4475 18.8646 51.5415 19.9585C52.6354 21.0525 53.25 22.5362 53.25 24.0833V29.9167C53.25 31.4638 52.6354 32.9475 51.5415 34.0415C50.4475 35.1354 48.9638 35.75 47.4167 35.75H35.75V47.4167C35.75 48.9638 35.1354 50.4475 34.0415 51.5415C32.9475 52.6354 31.4638 53.25 29.9167 53.25H24.0833C22.5362 53.25 21.0525 52.6354 19.9585 51.5415C18.8646 50.4475 18.25 48.9638 18.25 47.4167V35.75H6.58333C5.03624 35.75 3.55251 35.1354 2.45854 34.0415C1.36458 32.9475 0.75 31.4638 0.75 29.9167V24.0833C0.75 22.5362 1.36458 21.0525 2.45854 19.9585C3.55251 18.8646 5.03624 18.25 6.58333 18.25H18.25V6.58333Z" fill="white"/>
</svg>
